<?xml version="1.0" standalone="no"?>
<!DOCTYPE svg PUBLIC "-//W3C//DTD SVG 20010904//EN"
 "http://www.w3.org/TR/2001/REC-SVG-20010904/DTD/svg10.dtd">
<svg version="1.0" xmlns="http://www.w3.org/2000/svg"
 width="32.000000pt" height="32.000000pt" viewBox="0 0 32.000000 32.000000"
 preserveAspectRatio="xMidYMid meet">
<metadata>
Created by potrace 1.16, written by Peter Selinger 2001-2019
</metadata>
<g transform="translate(0.000000,32.000000) scale(0.100000,-0.100000)"
fill="#000000" stroke="none">
<path d="M0 160 l0 -160 160 0 160 0 0 160 0 160 -160 0 -160 0 0 -160z m254
114 c23 -9 20 -27 -14 -69 -17 -21 -30 -39 -30 -40 0 -1 14 -19 30 -40 33 -42
38 -70 14 -79 -20 -8 -168 -8 -188 0 -24 9 -19 37 14 79 17 21 30 39 30 40 0
1 -13 19 -30 40 -32 41 -37 60 -17 68 18 8 172 8 191 1z"/>
</g>
</svg>
